<svg width="114" height="38" viewBox="0 0 114 38" fill="none" xmlns="http://www.w3.org/2000/svg">
<path d="M13.2327 8.235C13.966 8.235 14.626 8.38167 15.2127 8.675C15.7993 8.96833 16.0927 9.40833 16.0927 9.995C16.0927 10.5083 15.946 10.93 15.6527 11.26C15.3593 11.5533 15.011 11.7 14.6077 11.7C14.4243 11.7 14.0577 11.6083 13.5077 11.425C12.9943 11.2417 12.4993 11.15 12.0227 11.15C10.666 11.15 9.30934 11.6817 7.95268 12.745C6.63268 13.7717 5.53268 15.11 4.65268 16.76C3.80934 18.41 3.38768 20.0783 3.38768 21.765V35.35C3.38768 35.8267 3.22268 36.23 2.89268 36.56C2.59934 36.8533 2.21434 37 1.73768 37C1.26101 37 0.857676 36.8533 0.527676 36.56C0.234343 36.23 0.087676 35.8267 0.087676 35.35V10.71C0.087676 10.2333 0.234343 9.84833 0.527676 9.555C0.857676 9.225 1.26101 9.06 1.73768 9.06C2.21434 9.06 2.59934 9.225 2.89268 9.555C3.22268 9.84833 3.38768 10.2333 3.38768 10.71V15.55C4.23101 13.46 5.49601 11.7367 7.18268 10.38C8.90601 8.98667 10.9227 8.27167 13.2327 8.235ZM24.4398 35.35C24.4398 35.8267 24.2748 36.23 23.9448 36.56C23.6515 36.8533 23.2665 37 22.7898 37C22.3131 37 21.9098 36.8533 21.5798 36.56C21.2865 36.23 21.1398 35.8267 21.1398 35.35V10.05C21.1398 9.57333 21.2865 9.18833 21.5798 8.895C21.9098 8.565 22.3131 8.4 22.7898 8.4C23.2665 8.4 23.6515 8.565 23.9448 8.895C24.2748 9.18833 24.4398 9.57333 24.4398 10.05V35.35ZM22.7898 4.715C22.0565 4.715 21.4881 4.55 21.0848 4.22C20.6815 3.85333 20.4798 3.34 20.4798 2.68V2.13C20.4798 1.47 20.6815 0.974999 21.0848 0.644999C21.5248 0.278333 22.1115 0.0949998 22.8448 0.0949998C24.3115 0.0949998 25.0448 0.773333 25.0448 2.13V2.68C25.0448 3.34 24.8431 3.85333 24.4398 4.22C24.0731 4.55 23.5231 4.715 22.7898 4.715ZM45.1675 8.235C46.8908 8.235 48.4858 8.43667 49.9525 8.84C51.4558 9.20666 52.6475 9.72 53.5275 10.38C54.4441 11.04 54.9025 11.755 54.9025 12.525C54.9025 12.9283 54.7558 13.295 54.4625 13.625C54.2058 13.955 53.8758 14.12 53.4725 14.12C53.1058 14.12 52.7941 14.0467 52.5375 13.9C52.3175 13.7533 52.0608 13.5333 51.7675 13.24C51.2908 12.7633 50.8325 12.415 50.3925 12.195C49.8425 11.9383 49.1091 11.7367 48.1925 11.59C47.3125 11.4067 46.3591 11.315 45.3325 11.315C43.3158 11.315 41.4641 11.8283 39.7775 12.855C38.1275 13.8817 36.8258 15.275 35.8725 17.035C34.9191 18.795 34.4425 20.7383 34.4425 22.865C34.4425 25.065 34.9008 27.045 35.8175 28.805C36.7341 30.565 37.9991 31.9583 39.6125 32.985C41.2625 33.975 43.1325 34.47 45.2225 34.47C46.5425 34.47 47.5875 34.36 48.3575 34.14C49.1641 33.92 49.9525 33.6083 50.7225 33.205C50.9791 33.0583 51.4191 32.7283 52.0425 32.215C52.3358 31.9583 52.5925 31.775 52.8125 31.665C53.0325 31.5183 53.2708 31.445 53.5275 31.445C53.9675 31.445 54.3158 31.5917 54.5725 31.885C54.8291 32.1417 54.9575 32.49 54.9575 32.93C54.9575 33.5533 54.5175 34.2317 53.6375 34.965C52.7575 35.6617 51.5475 36.2667 50.0075 36.78C48.4675 37.2933 46.7625 37.55 44.8925 37.55C42.2158 37.55 39.8325 36.9267 37.7425 35.68C35.6525 34.3967 34.0208 32.6367 32.8475 30.4C31.7108 28.1633 31.1425 25.6517 31.1425 22.865C31.1425 20.1883 31.7291 17.75 32.9025 15.55C34.0758 13.3133 35.7258 11.535 37.8525 10.215C39.9791 8.895 42.4175 8.235 45.1675 8.235ZM73.4194 8.235C75.1428 8.235 76.7378 8.43667 78.2044 8.84C79.7078 9.20666 80.8994 9.72 81.7794 10.38C82.6961 11.04 83.1544 11.755 83.1544 12.525C83.1544 12.9283 83.0078 13.295 82.7144 13.625C82.4578 13.955 82.1278 14.12 81.7244 14.12C81.3578 14.12 81.0461 14.0467 80.7894 13.9C80.5694 13.7533 80.3128 13.5333 80.0194 13.24C79.5428 12.7633 79.0844 12.415 78.6444 12.195C78.0944 11.9383 77.3611 11.7367 76.4444 11.59C75.5644 11.4067 74.6111 11.315 73.5844 11.315C71.5678 11.315 69.7161 11.8283 68.0294 12.855C66.3794 13.8817 65.0778 15.275 64.1244 17.035C63.1711 18.795 62.6944 20.7383 62.6944 22.865C62.6944 25.065 63.1528 27.045 64.0694 28.805C64.9861 30.565 66.2511 31.9583 67.8644 32.985C69.5144 33.975 71.3844 34.47 73.4744 34.47C74.7944 34.47 75.8394 34.36 76.6094 34.14C77.4161 33.92 78.2044 33.6083 78.9744 33.205C79.2311 33.0583 79.6711 32.7283 80.2944 32.215C80.5878 31.9583 80.8444 31.775 81.0644 31.665C81.2844 31.5183 81.5228 31.445 81.7794 31.445C82.2194 31.445 82.5678 31.5917 82.8244 31.885C83.0811 32.1417 83.2094 32.49 83.2094 32.93C83.2094 33.5533 82.7694 34.2317 81.8894 34.965C81.0094 35.6617 79.7994 36.2667 78.2594 36.78C76.7194 37.2933 75.0144 37.55 73.1444 37.55C70.4678 37.55 68.0844 36.9267 65.9944 35.68C63.9044 34.3967 62.2728 32.6367 61.0994 30.4C59.9628 28.1633 59.3944 25.6517 59.3944 22.865C59.3944 20.1883 59.9811 17.75 61.1544 15.55C62.3278 13.3133 63.9778 11.535 66.1044 10.215C68.2311 8.895 70.6694 8.235 73.4194 8.235ZM112.341 8.895C112.818 8.895 113.203 9.06 113.496 9.39C113.826 9.72 113.991 10.1233 113.991 10.6V35.35C113.991 35.8267 113.826 36.23 113.496 36.56C113.203 36.8533 112.818 37 112.341 37C111.865 37 111.461 36.8533 111.131 36.56C110.838 36.23 110.691 35.8267 110.691 35.35V31.665C109.775 33.315 108.4 34.7083 106.566 35.845C104.733 36.9817 102.735 37.55 100.571 37.55C98.1147 37.55 95.8964 36.9083 93.9164 35.625C91.9731 34.3417 90.4331 32.5817 89.2964 30.345C88.1964 28.1083 87.6464 25.5967 87.6464 22.81C87.6464 20.0233 88.2147 17.53 89.3514 15.33C90.4881 13.0933 92.0281 11.3517 93.9714 10.105C95.9514 8.85833 98.1331 8.235 100.516 8.235C102.716 8.235 104.733 8.76667 106.566 9.83C108.4 10.8933 109.775 12.2867 110.691 14.01V10.6C110.691 10.1233 110.838 9.72 111.131 9.39C111.461 9.06 111.865 8.895 112.341 8.895ZM100.901 34.47C102.808 34.47 104.513 33.975 106.016 32.985C107.556 31.9583 108.748 30.565 109.591 28.805C110.471 27.0083 110.911 25.01 110.911 22.81C110.911 20.6833 110.471 18.74 109.591 16.98C108.748 15.22 107.556 13.845 106.016 12.855C104.513 11.8283 102.808 11.315 100.901 11.315C98.9947 11.315 97.2714 11.81 95.7314 12.8C94.2281 13.79 93.0364 15.165 92.1564 16.925C91.3131 18.6483 90.8914 20.61 90.8914 22.81C90.8914 25.01 91.3131 27.0083 92.1564 28.805C92.9997 30.565 94.1731 31.9583 95.6764 32.985C97.2164 33.975 98.9581 34.47 100.901 34.47Z" fill="black"/>
</svg>
